<svg width="1322" height="329" viewBox="0 0 1322 329" fill="none" xmlns="http://www.w3.org/2000/svg">
    <g filter="url(#filter0_b_602_2)">
    <mask id="path-1-inside-1_602_2" fill="white">
    <path d="M170.184 11.2C174.184 6.39999 178.718 4 183.784 4C189.384 4 195.118 6.53333 200.984 11.6C203.918 14.5333 206.318 17.4666 208.184 20.4C210.318 23.3333 211.384 26.2667 211.384 29.2C211.384 34 209.651 38.1333 206.184 41.6L152.584 104L48.1844 226.8V307.2C48.1844 320 40.1844 326.4 24.1844 326.4C8.45104 326.4 0.584376 320 0.584376 307.2V23.6C0.584376 10.8 8.45104 4.39999 24.1844 4.39999C40.1844 4.39999 48.1844 10.8 48.1844 23.6V154.4L170.184 11.2ZM113.384 201.2C110.718 197.467 109.384 192.933 109.384 187.6C109.384 179.6 112.718 173.2 119.384 168.4H118.984C124.318 164.667 129.651 162.8 134.984 162.8C140.051 162.8 144.318 165.733 147.784 171.6L224.984 284.4L224.584 284C226.984 287.733 228.184 291.733 228.184 296C228.184 302.933 224.718 309.067 217.784 314.4H218.184C215.251 316.267 212.451 317.733 209.784 318.8C207.118 319.867 204.718 320.4 202.584 320.4C200.451 320.4 198.184 319.6 195.784 318C193.651 316.4 191.518 314.4 189.384 312L113.384 201.2ZM318.331 324C310.065 324 302.198 322.933 294.731 320.8C287.265 318.4 280.065 315.067 273.131 310.8V311.2C260.065 302.933 253.531 287.733 253.531 265.6V246C253.531 235.067 255.398 225.6 259.131 217.6C263.131 209.333 268.598 202.8 275.531 198H275.131C281.798 193.467 288.865 190.133 296.331 188C303.798 185.6 310.998 184.4 317.931 184.4H406.331V147.2C406.331 140.533 404.198 134.533 399.931 129.2C395.931 123.6 388.998 120.8 379.131 120.8H332.331C322.198 120.8 315.131 123.333 311.131 128.4C307.398 133.2 305.531 138.933 305.531 145.6V148.8C305.531 162.667 298.065 169.6 283.131 169.6C268.198 169.6 260.731 162.667 260.731 148.8V145.2C260.731 134.267 262.598 125.067 266.331 117.6C270.331 110.133 275.665 103.867 282.331 98.8H281.931C288.865 94.2667 296.065 90.5333 303.531 87.6C311.265 84.6666 318.598 83.2 325.531 83.2H386.331C392.998 83.2 400.065 84.6666 407.531 87.6C415.265 90.5333 422.465 94.2667 429.131 98.8H428.731C435.665 103.867 440.998 110.533 444.731 118.8C448.465 126.8 450.331 136.133 450.331 146.8V307.2C450.331 320 442.998 326.4 428.331 326.4C425.398 326.4 422.598 326.267 419.931 326C417.531 325.733 415.265 325.067 413.131 324C411.265 322.667 409.665 320.933 408.331 318.8C407.265 316.4 406.731 313.333 406.731 309.6L406.331 222H325.531C319.665 222 315.131 222.667 311.931 224C308.731 225.333 306.198 227.467 304.331 230.4C302.198 234.933 300.598 238.533 299.531 241.2C298.731 243.6 298.331 246.4 298.331 249.6V265.2C298.331 272.133 300.331 277.467 304.331 281.2C308.598 284.667 315.798 286.4 325.931 286.4H370.731C380.598 286.4 385.531 292.667 385.531 305.2C385.531 310.533 384.331 315.067 381.931 318.8C379.531 322.267 375.798 324 370.731 324H318.331ZM545.272 307.2C545.272 320 537.939 326.4 523.272 326.4C508.072 326.4 500.472 320 500.472 307.2V141.6C500.472 119.733 507.005 104.533 520.072 96C533.139 87.4666 548.205 83.2 565.272 83.2H610.872C620.739 83.2 625.672 89.4667 625.672 102C626.205 114.533 621.272 120.8 610.872 120.8H568.472C558.872 120.8 552.605 122.667 549.672 126.4C546.739 130.133 545.272 135.333 545.272 142V307.2ZM711.894 120.8V266.4C711.894 273.333 713.36 278.667 716.294 282.4C719.227 286.133 725.494 288 735.094 288H745.494C755.894 288 760.827 294.133 760.294 306.4C760.294 318.933 755.36 325.2 745.494 325.2H732.294C723.76 325.2 715.76 324.133 708.294 322C700.827 319.6 693.627 316.267 686.694 312V312.4C673.627 303.867 667.094 288.667 667.094 266.8V120.8H651.494C641.894 120.8 636.827 114.533 636.294 102C636.294 89.4667 641.36 83.2 651.494 83.2H667.094V40.4C667.094 27.6 674.694 21.2 689.894 21.2C704.56 21.2 711.894 27.6 711.894 40.4V83.2H745.094C755.494 83.2 760.427 89.4667 759.894 102C759.894 114.533 754.96 120.8 745.094 120.8H711.894ZM839.041 307.2C839.041 320 831.707 326.4 817.041 326.4C802.374 326.4 795.041 320 795.041 307.2V23.2C795.041 10.4 802.374 4 817.041 4C831.707 4 839.041 10.4 839.041 23.2V83.2H923.441C937.041 83.2 951.174 88.2666 965.841 98.4C980.241 108.533 987.441 124.533 987.441 146.4V307.2C987.441 320 980.107 326.4 965.441 326.4C950.774 326.4 943.441 320 943.441 307.2V150C943.441 143.067 941.307 136.4 937.041 130L937.441 130.4C933.974 124 926.907 120.8 916.241 120.8H839.041V307.2ZM1085.55 307.2C1085.55 320 1078.22 326.4 1063.55 326.4C1048.62 326.4 1041.15 320 1041.15 307.2V100.8C1041.15 88 1048.62 81.6 1063.55 81.6C1078.22 81.6 1085.55 88 1085.55 100.8V307.2ZM1093.95 31.2C1093.95 39.7333 1091.02 46.9333 1085.15 52.8C1079.29 58.6667 1072.09 61.6 1063.55 61.6C1055.02 61.6 1047.69 58.6667 1041.55 52.8C1035.69 46.9333 1032.75 39.7333 1032.75 31.2C1032.75 22.4 1035.69 15.0666 1041.55 9.19998C1047.69 3.33332 1055.02 0.399994 1063.55 0.399994C1072.09 0.399994 1079.29 3.33332 1085.15 9.19998C1091.02 15.0666 1093.95 22.4 1093.95 31.2ZM1185.13 257.2V308C1185.13 320.533 1177.8 326.8 1163.13 326.8C1148.47 326.8 1141.13 320.533 1141.13 308V23.2C1141.13 10.4 1148.47 4 1163.13 4C1177.8 4 1185.13 10.4 1185.13 23.2V192.8C1191.8 184.8 1199.13 176.267 1207.13 167.2C1215.4 157.867 1223.53 148.533 1231.53 139.2C1239.8 129.6 1247.93 120.267 1255.93 111.2C1263.93 101.867 1271.4 93.2 1278.33 85.2V85.6C1283.13 80 1287.93 77.2 1292.73 77.2C1295.4 77.2 1297.93 77.8666 1300.33 79.2C1303 80.2666 1305.8 81.8667 1308.73 84H1308.33C1314.73 89.3333 1317.93 94.6667 1317.93 100C1317.93 101.867 1317.53 104 1316.73 106.4C1315.93 108.533 1314.6 110.4 1312.73 112L1185.13 257.2ZM1318.73 297.2C1320.6 300.667 1321.53 304.267 1321.53 308C1321.53 314.933 1317.53 320.133 1309.53 323.6C1304.2 326.8 1299.4 328.4 1295.13 328.4C1292.2 328.4 1289.4 327.333 1286.73 325.2C1284.07 323.333 1281.93 320.933 1280.33 318L1240.33 240.8C1237.93 236.8 1236.73 232.8 1236.73 228.8C1236.73 222.133 1240.2 216.533 1247.13 212C1249 210.667 1250.87 209.467 1252.73 208.4C1254.87 207.333 1257.13 206.533 1259.53 206C1262.47 205.467 1265.27 206 1267.93 207.6C1270.6 209.2 1272.87 211.333 1274.73 214L1318.73 297.2Z"/>
    </mask>
    <path d="M170.184 11.2C174.184 6.39999 178.718 4 183.784 4C189.384 4 195.118 6.53333 200.984 11.6C203.918 14.5333 206.318 17.4666 208.184 20.4C210.318 23.3333 211.384 26.2667 211.384 29.2C211.384 34 209.651 38.1333 206.184 41.6L152.584 104L48.1844 226.8V307.2C48.1844 320 40.1844 326.4 24.1844 326.4C8.45104 326.4 0.584376 320 0.584376 307.2V23.6C0.584376 10.8 8.45104 4.39999 24.1844 4.39999C40.1844 4.39999 48.1844 10.8 48.1844 23.6V154.4L170.184 11.2ZM113.384 201.2C110.718 197.467 109.384 192.933 109.384 187.6C109.384 179.6 112.718 173.2 119.384 168.4H118.984C124.318 164.667 129.651 162.8 134.984 162.8C140.051 162.8 144.318 165.733 147.784 171.6L224.984 284.4L224.584 284C226.984 287.733 228.184 291.733 228.184 296C228.184 302.933 224.718 309.067 217.784 314.4H218.184C215.251 316.267 212.451 317.733 209.784 318.8C207.118 319.867 204.718 320.4 202.584 320.4C200.451 320.4 198.184 319.6 195.784 318C193.651 316.4 191.518 314.4 189.384 312L113.384 201.2ZM318.331 324C310.065 324 302.198 322.933 294.731 320.8C287.265 318.4 280.065 315.067 273.131 310.8V311.2C260.065 302.933 253.531 287.733 253.531 265.6V246C253.531 235.067 255.398 225.6 259.131 217.6C263.131 209.333 268.598 202.8 275.531 198H275.131C281.798 193.467 288.865 190.133 296.331 188C303.798 185.6 310.998 184.4 317.931 184.4H406.331V147.2C406.331 140.533 404.198 134.533 399.931 129.2C395.931 123.6 388.998 120.8 379.131 120.8H332.331C322.198 120.8 315.131 123.333 311.131 128.4C307.398 133.2 305.531 138.933 305.531 145.6V148.8C305.531 162.667 298.065 169.6 283.131 169.6C268.198 169.6 260.731 162.667 260.731 148.8V145.2C260.731 134.267 262.598 125.067 266.331 117.6C270.331 110.133 275.665 103.867 282.331 98.8H281.931C288.865 94.2667 296.065 90.5333 303.531 87.6C311.265 84.6666 318.598 83.2 325.531 83.2H386.331C392.998 83.2 400.065 84.6666 407.531 87.6C415.265 90.5333 422.465 94.2667 429.131 98.8H428.731C435.665 103.867 440.998 110.533 444.731 118.8C448.465 126.8 450.331 136.133 450.331 146.8V307.2C450.331 320 442.998 326.4 428.331 326.4C425.398 326.4 422.598 326.267 419.931 326C417.531 325.733 415.265 325.067 413.131 324C411.265 322.667 409.665 320.933 408.331 318.8C407.265 316.4 406.731 313.333 406.731 309.6L406.331 222H325.531C319.665 222 315.131 222.667 311.931 224C308.731 225.333 306.198 227.467 304.331 230.4C302.198 234.933 300.598 238.533 299.531 241.2C298.731 243.6 298.331 246.4 298.331 249.6V265.2C298.331 272.133 300.331 277.467 304.331 281.2C308.598 284.667 315.798 286.4 325.931 286.4H370.731C380.598 286.4 385.531 292.667 385.531 305.2C385.531 310.533 384.331 315.067 381.931 318.8C379.531 322.267 375.798 324 370.731 324H318.331ZM545.272 307.2C545.272 320 537.939 326.4 523.272 326.4C508.072 326.4 500.472 320 500.472 307.2V141.6C500.472 119.733 507.005 104.533 520.072 96C533.139 87.4666 548.205 83.2 565.272 83.2H610.872C620.739 83.2 625.672 89.4667 625.672 102C626.205 114.533 621.272 120.8 610.872 120.8H568.472C558.872 120.8 552.605 122.667 549.672 126.4C546.739 130.133 545.272 135.333 545.272 142V307.2ZM711.894 120.8V266.4C711.894 273.333 713.36 278.667 716.294 282.4C719.227 286.133 725.494 288 735.094 288H745.494C755.894 288 760.827 294.133 760.294 306.4C760.294 318.933 755.36 325.2 745.494 325.2H732.294C723.76 325.2 715.76 324.133 708.294 322C700.827 319.6 693.627 316.267 686.694 312V312.4C673.627 303.867 667.094 288.667 667.094 266.8V120.8H651.494C641.894 120.8 636.827 114.533 636.294 102C636.294 89.4667 641.36 83.2 651.494 83.2H667.094V40.4C667.094 27.6 674.694 21.2 689.894 21.2C704.56 21.2 711.894 27.6 711.894 40.4V83.2H745.094C755.494 83.2 760.427 89.4667 759.894 102C759.894 114.533 754.96 120.8 745.094 120.8H711.894ZM839.041 307.2C839.041 320 831.707 326.4 817.041 326.4C802.374 326.4 795.041 320 795.041 307.2V23.2C795.041 10.4 802.374 4 817.041 4C831.707 4 839.041 10.4 839.041 23.2V83.2H923.441C937.041 83.2 951.174 88.2666 965.841 98.4C980.241 108.533 987.441 124.533 987.441 146.4V307.2C987.441 320 980.107 326.4 965.441 326.4C950.774 326.4 943.441 320 943.441 307.2V150C943.441 143.067 941.307 136.4 937.041 130L937.441 130.4C933.974 124 926.907 120.8 916.241 120.8H839.041V307.2ZM1085.55 307.2C1085.55 320 1078.22 326.4 1063.55 326.4C1048.62 326.4 1041.15 320 1041.15 307.2V100.8C1041.15 88 1048.62 81.6 1063.55 81.6C1078.22 81.6 1085.55 88 1085.55 100.8V307.2ZM1093.95 31.2C1093.95 39.7333 1091.02 46.9333 1085.15 52.8C1079.29 58.6667 1072.09 61.6 1063.55 61.6C1055.02 61.6 1047.69 58.6667 1041.55 52.8C1035.69 46.9333 1032.75 39.7333 1032.75 31.2C1032.75 22.4 1035.69 15.0666 1041.55 9.19998C1047.69 3.33332 1055.02 0.399994 1063.55 0.399994C1072.09 0.399994 1079.29 3.33332 1085.15 9.19998C1091.02 15.0666 1093.95 22.4 1093.95 31.2ZM1185.13 257.2V308C1185.13 320.533 1177.8 326.8 1163.13 326.8C1148.47 326.8 1141.13 320.533 1141.13 308V23.2C1141.13 10.4 1148.47 4 1163.13 4C1177.8 4 1185.13 10.4 1185.13 23.2V192.8C1191.8 184.8 1199.13 176.267 1207.13 167.2C1215.4 157.867 1223.53 148.533 1231.53 139.2C1239.8 129.6 1247.93 120.267 1255.93 111.2C1263.93 101.867 1271.4 93.2 1278.33 85.2V85.6C1283.13 80 1287.93 77.2 1292.73 77.2C1295.4 77.2 1297.93 77.8666 1300.33 79.2C1303 80.2666 1305.8 81.8667 1308.73 84H1308.33C1314.73 89.3333 1317.93 94.6667 1317.93 100C1317.93 101.867 1317.53 104 1316.73 106.4C1315.93 108.533 1314.6 110.4 1312.73 112L1185.13 257.2ZM1318.73 297.2C1320.6 300.667 1321.53 304.267 1321.53 308C1321.53 314.933 1317.53 320.133 1309.53 323.6C1304.2 326.8 1299.4 328.4 1295.13 328.4C1292.2 328.4 1289.4 327.333 1286.73 325.2C1284.07 323.333 1281.93 320.933 1280.33 318L1240.33 240.8C1237.93 236.8 1236.73 232.8 1236.73 228.8C1236.73 222.133 1240.2 216.533 1247.13 212C1249 210.667 1250.87 209.467 1252.73 208.4C1254.87 207.333 1257.13 206.533 1259.53 206C1262.47 205.467 1265.27 206 1267.93 207.6C1270.6 209.2 1272.87 211.333 1274.73 214L1318.73 297.2Z" fill="#48C3DD"/>
    <path d="M170.184 11.2L173.99 14.4425L174.008 14.4218L174.025 14.4009L170.184 11.2ZM200.984 11.6L204.52 8.06446L204.391 7.93528L204.252 7.81588L200.984 11.6ZM208.184 20.4L203.966 23.0844L204.049 23.2153L204.141 23.3408L208.184 20.4ZM206.184 41.6L202.649 38.0645L202.515 38.1984L202.392 38.342L206.184 41.6ZM152.584 104L148.792 100.742L148.783 100.752L148.775 100.761L152.584 104ZM48.1844 226.8L44.375 223.561L43.1844 224.962V226.8H48.1844ZM48.1844 154.4H43.1844V167.979L51.9904 157.643L48.1844 154.4ZM113.384 201.2L117.508 198.372L117.481 198.333L117.453 198.294L113.384 201.2ZM119.384 168.4L122.306 172.458L134.886 163.4H119.384V168.4ZM118.984 168.4L116.117 164.304L103.123 173.4H118.984V168.4ZM147.784 171.6L143.48 174.144L143.564 174.287L143.658 174.424L147.784 171.6ZM224.984 284.4L221.449 287.936L229.111 281.576L224.984 284.4ZM224.584 284L228.12 280.464L220.378 286.704L224.584 284ZM217.784 314.4L214.736 310.437L203.084 319.4H217.784V314.4ZM218.184 314.4L220.869 318.618L235.355 309.4H218.184V314.4ZM209.784 318.8L211.641 323.442L211.641 323.442L209.784 318.8ZM195.784 318L192.784 322L192.895 322.083L193.011 322.16L195.784 318ZM189.384 312L185.261 314.828L185.439 315.087L185.647 315.322L189.384 312ZM174.025 14.4009C177.318 10.4502 180.542 9 183.784 9V-1C176.893 -1 171.051 2.34979 166.343 7.99905L174.025 14.4009ZM183.784 9C187.793 9 192.41 10.8011 197.716 15.3841L204.252 7.81588C197.826 2.26554 190.976 -1 183.784 -1V9ZM197.449 15.1355C200.172 17.8588 202.329 20.5111 203.966 23.0844L212.403 17.7156C210.307 14.4222 207.663 11.2079 204.52 8.06446L197.449 15.1355ZM204.141 23.3408C205.802 25.6247 206.384 27.5515 206.384 29.2H216.384C216.384 24.9818 214.834 21.0419 212.228 17.4591L204.141 23.3408ZM206.384 29.2C206.384 32.6425 205.2 35.513 202.649 38.0645L209.72 45.1355C214.102 40.7536 216.384 35.3575 216.384 29.2H206.384ZM202.392 38.342L148.792 100.742L156.377 107.258L209.977 44.8579L202.392 38.342ZM148.775 100.761L44.375 223.561L51.9938 230.039L156.394 107.239L148.775 100.761ZM43.1844 226.8V307.2H53.1844V226.8H43.1844ZM43.1844 307.2C43.1844 312.496 41.5845 315.677 39.0609 317.696C36.3242 319.885 31.6502 321.4 24.1844 321.4V331.4C32.7186 331.4 40.0445 329.715 45.3079 325.504C50.7842 321.123 53.1844 314.704 53.1844 307.2H43.1844ZM24.1844 321.4C16.8668 321.4 12.3065 319.891 9.63981 317.721C7.17046 315.712 5.58438 312.525 5.58438 307.2H-4.41562C-4.41562 314.675 -2.06837 321.088 3.32894 325.479C8.52888 329.709 15.7686 331.4 24.1844 331.4V321.4ZM5.58438 307.2V23.6H-4.41562V307.2H5.58438ZM5.58438 23.6C5.58438 18.2747 7.17046 15.0875 9.63981 13.0785C12.3065 10.909 16.8668 9.39999 24.1844 9.39999V-0.60001C15.7686 -0.60001 8.52888 1.09097 3.32894 5.32143C-2.06837 9.71246 -4.41562 16.1253 -4.41562 23.6H5.58438ZM24.1844 9.39999C31.6502 9.39999 36.3242 10.915 39.0609 13.1043C41.5845 15.1232 43.1844 18.3035 43.1844 23.6H53.1844C53.1844 16.0965 50.7842 9.67675 45.3079 5.29564C40.0445 1.08497 32.7186 -0.60001 24.1844 -0.60001V9.39999ZM43.1844 23.6V154.4H53.1844V23.6H43.1844ZM51.9904 157.643L173.99 14.4425L166.378 7.95741L44.3784 151.157L51.9904 157.643ZM117.453 198.294C115.486 195.54 114.384 192.066 114.384 187.6H104.384C104.384 193.801 105.949 199.393 109.316 204.106L117.453 198.294ZM114.384 187.6C114.384 181.259 116.903 176.348 122.306 172.458L116.463 164.342C108.533 170.052 104.384 177.941 104.384 187.6H114.384ZM119.384 163.4H118.984V173.4H119.384V163.4ZM121.852 172.496C126.533 169.219 130.885 167.8 134.984 167.8V157.8C128.417 157.8 122.103 160.114 116.117 164.304L121.852 172.496ZM134.984 167.8C137.688 167.8 140.562 169.206 143.48 174.144L152.089 169.056C148.073 162.261 142.414 157.8 134.984 157.8V167.8ZM143.658 174.424L220.858 287.224L229.111 281.576L151.911 168.776L143.658 174.424ZM228.52 280.864L228.12 280.464L221.049 287.536L221.449 287.936L228.52 280.864ZM220.378 286.704C222.282 289.665 223.184 292.732 223.184 296H233.184C233.184 290.735 231.687 285.802 228.79 281.296L220.378 286.704ZM223.184 296C223.184 300.983 220.793 305.777 214.736 310.437L220.833 318.363C228.642 312.356 233.184 304.884 233.184 296H223.184ZM217.784 319.4H218.184V309.4H217.784V319.4ZM215.5 310.182C212.776 311.915 210.253 313.227 207.927 314.158L211.641 323.442C214.649 322.239 217.726 320.618 220.869 318.618L215.5 310.182ZM207.927 314.158C205.659 315.065 203.903 315.4 202.584 315.4V325.4C205.532 325.4 208.576 324.668 211.641 323.442L207.927 314.158ZM202.584 315.4C201.73 315.4 200.419 315.08 198.558 313.84L193.011 322.16C195.95 324.12 199.172 325.4 202.584 325.4V315.4ZM198.784 314C196.966 312.637 195.076 310.877 193.121 308.678L185.647 315.322C187.96 317.923 190.336 320.163 192.784 322L198.784 314ZM193.508 309.172L117.508 198.372L109.261 204.028L185.261 314.828L193.508 309.172ZM294.731 320.8L293.201 325.56L293.279 325.585L293.358 325.608L294.731 320.8ZM273.131 310.8L275.752 306.542L268.131 301.852V310.8H273.131ZM273.131 311.2L270.458 315.425L278.131 320.28V311.2H273.131ZM259.131 217.6L254.63 215.422L254.615 215.454L254.6 215.486L259.131 217.6ZM275.531 198L278.377 202.111L291.538 193H275.531V198ZM275.131 198L272.32 193.865L258.886 203H275.131V198ZM296.331 188L297.705 192.808L297.783 192.785L297.861 192.76L296.331 188ZM406.331 184.4V189.4H411.331V184.4H406.331ZM399.931 129.2L395.863 132.106L395.942 132.217L396.027 132.323L399.931 129.2ZM311.131 128.4L307.207 125.302L307.196 125.316L307.184 125.33L311.131 128.4ZM266.331 117.6L261.924 115.239L261.891 115.301L261.859 115.364L266.331 117.6ZM282.331 98.8L285.357 102.781L297.174 93.8H282.331V98.8ZM281.931 98.8L279.195 94.6151L265.148 103.8H281.931V98.8ZM303.531 87.6L301.758 82.925L301.73 82.9355L301.703 82.9462L303.531 87.6ZM407.531 87.6L405.703 92.2537L405.73 92.2645L405.758 92.275L407.531 87.6ZM429.131 98.8V103.8H445.376L431.943 94.6654L429.131 98.8ZM428.731 98.8V93.8H413.415L425.781 102.837L428.731 98.8ZM444.731 118.8L440.174 120.858L440.187 120.886L440.2 120.914L444.731 118.8ZM419.931 326L419.379 330.969L419.406 330.972L419.434 330.975L419.931 326ZM413.131 324L410.225 328.069L410.544 328.297L410.895 328.472L413.131 324ZM408.331 318.8L403.762 320.831L403.905 321.152L404.091 321.45L408.331 318.8ZM406.731 309.6H411.731V309.589L411.731 309.577L406.731 309.6ZM406.331 222L411.331 221.977L411.308 217H406.331V222ZM311.931 224L313.854 228.615L313.854 228.615L311.931 224ZM304.331 230.4L300.113 227.716L299.942 227.984L299.807 228.271L304.331 230.4ZM299.531 241.2L294.889 239.343L294.834 239.479L294.788 239.619L299.531 241.2ZM304.331 281.2L300.92 284.855L301.045 284.972L301.178 285.081L304.331 281.2ZM381.931 318.8L386.042 321.646L386.091 321.576L386.137 321.504L381.931 318.8ZM318.331 319C310.499 319 303.097 317.99 296.105 315.992L293.358 325.608C301.299 327.877 309.63 329 318.331 329V319ZM296.261 316.04C289.191 313.767 282.356 310.606 275.752 306.542L270.511 315.058C277.773 319.527 285.338 323.033 293.201 325.56L296.261 316.04ZM268.131 310.8V311.2H278.131V310.8H268.131ZM275.804 306.975C264.757 299.985 258.531 286.825 258.531 265.6H248.531C248.531 288.642 255.373 305.882 270.458 315.425L275.804 306.975ZM258.531 265.6V246H248.531V265.6H258.531ZM258.531 246C258.531 235.627 260.302 226.914 263.662 219.714L254.6 215.486C250.493 224.286 248.531 234.506 248.531 246H258.531ZM263.632 219.778C267.291 212.216 272.215 206.377 278.377 202.111L272.685 193.889C264.981 199.223 258.972 206.45 254.63 215.422L263.632 219.778ZM275.531 193H275.131V203H275.531V193ZM277.943 202.135C284.186 197.889 290.77 194.789 297.705 192.808L294.958 183.192C286.96 185.478 279.41 189.044 272.32 193.865L277.943 202.135ZM297.861 192.76C304.897 190.499 311.58 189.4 317.931 189.4V179.4C310.415 179.4 302.698 180.701 294.801 183.24L297.861 192.76ZM317.931 189.4H406.331V179.4H317.931V189.4ZM411.331 184.4V147.2H401.331V184.4H411.331ZM411.331 147.2C411.331 139.368 408.793 132.273 403.836 126.077L396.027 132.323C399.603 136.794 401.331 141.698 401.331 147.2H411.331ZM404 126.294C398.699 118.872 389.867 115.8 379.131 115.8V125.8C388.129 125.8 393.164 128.328 395.863 132.106L404 126.294ZM379.131 115.8H332.331V125.8H379.131V115.8ZM332.331 115.8C321.547 115.8 312.591 118.482 307.207 125.302L315.056 131.498C317.671 128.185 322.849 125.8 332.331 125.8V115.8ZM307.184 125.33C302.702 131.094 300.531 137.935 300.531 145.6H310.531C310.531 139.932 312.094 135.306 315.078 131.47L307.184 125.33ZM300.531 145.6V148.8H310.531V145.6H300.531ZM300.531 148.8C300.531 154.864 298.916 158.519 296.529 160.736C294.072 163.018 289.915 164.6 283.131 164.6V174.6C291.28 174.6 298.324 172.716 303.334 168.064C308.413 163.347 310.531 156.603 310.531 148.8H300.531ZM283.131 164.6C276.347 164.6 272.19 163.018 269.734 160.736C267.346 158.519 265.731 154.864 265.731 148.8H255.731C255.731 156.603 257.849 163.347 262.929 168.064C267.939 172.716 274.982 174.6 283.131 174.6V164.6ZM265.731 148.8V145.2H255.731V148.8H265.731ZM265.731 145.2C265.731 134.812 267.508 126.428 270.803 119.836L261.859 115.364C257.688 123.706 255.731 133.722 255.731 145.2H265.731ZM270.739 119.961C274.404 113.12 279.268 107.408 285.357 102.781L279.306 94.8192C272.061 100.325 266.259 107.147 261.924 115.239L270.739 119.961ZM282.331 93.8H281.931V103.8H282.331V93.8ZM284.668 102.985C291.324 98.6323 298.221 95.0582 305.36 92.2538L301.703 82.9462C293.908 86.0085 286.405 89.901 279.195 94.6151L284.668 102.985ZM305.305 92.275C312.578 89.5161 319.308 88.2 325.531 88.2V78.2C317.888 78.2 309.951 79.8172 301.758 82.925L305.305 92.275ZM325.531 88.2H386.331V78.2H325.531V88.2ZM386.331 88.2C392.259 88.2 398.703 89.5038 405.703 92.2537L409.36 82.9462C401.426 79.8295 393.737 78.2 386.331 78.2V88.2ZM405.758 92.275C413.135 95.0731 419.985 98.6271 426.32 102.935L431.943 94.6654C424.944 89.9062 417.394 85.9936 409.305 82.925L405.758 92.275ZM429.131 93.8H428.731V103.8H429.131V93.8ZM425.781 102.837C431.977 107.365 436.776 113.333 440.174 120.858L449.288 116.742C445.22 107.734 439.352 100.368 431.681 94.763L425.781 102.837ZM440.2 120.914C443.567 128.129 445.331 136.714 445.331 146.8H455.331C455.331 135.552 453.362 125.471 449.262 116.686L440.2 120.914ZM445.331 146.8V307.2H455.331V146.8H445.331ZM445.331 307.2C445.331 312.639 443.805 315.859 441.544 317.833C439.152 319.92 435.048 321.4 428.331 321.4V331.4C436.281 331.4 443.177 329.68 448.119 325.367C453.191 320.941 455.331 314.561 455.331 307.2H445.331ZM428.331 321.4C425.549 321.4 422.916 321.273 420.429 321.025L419.434 330.975C422.28 331.26 425.247 331.4 428.331 331.4V321.4ZM420.483 321.031C418.662 320.828 416.966 320.327 415.367 319.528L410.895 328.472C413.563 329.806 416.4 330.638 419.379 330.969L420.483 321.031ZM416.037 319.931C414.754 319.014 413.591 317.782 412.571 316.15L404.091 321.45C405.738 324.085 407.776 326.319 410.225 328.069L416.037 319.931ZM412.9 316.769C412.211 315.218 411.731 312.907 411.731 309.6H401.731C401.731 313.759 402.318 317.582 403.762 320.831L412.9 316.769ZM411.731 309.577L411.331 221.977L401.331 222.023L401.731 309.623L411.731 309.577ZM406.331 217H325.531V227H406.331V217ZM325.531 217C319.399 217 314.098 217.68 310.008 219.385L313.854 228.615C316.164 227.653 319.931 227 325.531 227V217ZM310.008 219.385C305.861 221.113 302.527 223.922 300.113 227.716L308.55 233.084C309.869 231.012 311.602 229.554 313.854 228.615L310.008 219.385ZM299.807 228.271C297.658 232.839 296.01 236.541 294.889 239.343L304.174 243.057C305.186 240.525 306.738 237.028 308.855 232.529L299.807 228.271ZM294.788 239.619C293.78 242.643 293.331 245.998 293.331 249.6H303.331C303.331 246.802 303.683 244.557 304.275 242.781L294.788 239.619ZM293.331 249.6V265.2H303.331V249.6H293.331ZM293.331 265.2C293.331 273.126 295.651 279.938 300.92 284.855L307.743 277.545C305.012 274.996 303.331 271.141 303.331 265.2H293.331ZM301.178 285.081C306.826 289.669 315.5 291.4 325.931 291.4V281.4C316.096 281.4 310.37 279.664 307.484 277.319L301.178 285.081ZM325.931 291.4H370.731V281.4H325.931V291.4ZM370.731 291.4C374.533 291.4 376.607 292.547 377.903 294.193C379.377 296.066 380.531 299.454 380.531 305.2H390.531C390.531 298.413 389.218 292.4 385.76 288.007C382.122 283.386 376.796 281.4 370.731 281.4V291.4ZM380.531 305.2C380.531 309.77 379.51 313.319 377.725 316.096L386.137 321.504C389.152 316.814 390.531 311.297 390.531 305.2H380.531ZM377.82 315.954C376.55 317.789 374.535 319 370.731 319V329C377.061 329 382.512 326.745 386.042 321.646L377.82 315.954ZM370.731 319H318.331V329H370.731V319ZM625.672 102H620.672V102.106L620.676 102.213L625.672 102ZM549.672 126.4L553.603 129.489L553.603 129.489L549.672 126.4ZM540.272 307.2C540.272 312.639 538.745 315.859 536.484 317.833C534.093 319.92 529.989 321.4 523.272 321.4V331.4C531.221 331.4 538.117 329.68 543.06 325.367C548.132 320.941 550.272 314.561 550.272 307.2H540.272ZM523.272 321.4C516.253 321.4 511.921 319.904 509.393 317.775C507.029 315.785 505.472 312.582 505.472 307.2H495.472C495.472 314.618 497.715 321.015 502.951 325.425C508.023 329.696 515.091 331.4 523.272 331.4V321.4ZM505.472 307.2V141.6H495.472V307.2H505.472ZM505.472 141.6C505.472 120.682 511.677 107.454 522.806 100.186L517.338 91.8136C502.333 101.612 495.472 118.784 495.472 141.6H505.472ZM522.806 100.186C534.984 92.2334 549.082 88.2 565.272 88.2V78.2C547.329 78.2 531.293 82.6999 517.338 91.8136L522.806 100.186ZM565.272 88.2H610.872V78.2H565.272V88.2ZM610.872 88.2C614.674 88.2 616.748 89.3471 618.043 90.9928C619.518 92.8663 620.672 96.2537 620.672 102H630.672C630.672 95.213 629.359 89.2003 625.901 84.8072C622.263 80.1862 616.937 78.2 610.872 78.2V88.2ZM620.676 102.213C620.92 107.934 619.849 111.221 618.443 113.007C617.198 114.589 615.044 115.8 610.872 115.8V125.8C617.1 125.8 622.612 123.878 626.301 119.193C629.828 114.712 630.957 108.599 630.667 101.787L620.676 102.213ZM610.872 115.8H568.472V125.8H610.872V115.8ZM568.472 115.8C563.392 115.8 558.903 116.289 555.144 117.408C551.385 118.528 548.046 120.376 545.74 123.311L553.603 129.489C554.231 128.69 555.492 127.739 557.999 126.992C560.508 126.245 563.951 125.8 568.472 125.8V115.8ZM545.74 123.311C541.883 128.22 540.272 134.657 540.272 142H550.272C550.272 136.01 551.594 132.047 553.603 129.489L545.74 123.311ZM540.272 142V307.2H550.272V142H540.272ZM711.894 120.8V115.8H706.894V120.8H711.894ZM716.294 282.4L720.225 279.311L720.225 279.311L716.294 282.4ZM760.294 306.4L755.298 306.183L755.294 306.291V306.4H760.294ZM708.294 322L706.764 326.76L706.842 326.785L706.92 326.808L708.294 322ZM686.694 312L689.314 307.742L681.694 303.052V312H686.694ZM686.694 312.4L683.96 316.586L691.694 321.637V312.4H686.694ZM667.094 120.8H672.094V115.8H667.094V120.8ZM636.294 102H631.294V102.106L631.298 102.213L636.294 102ZM667.094 83.2V88.2H672.094V83.2H667.094ZM711.894 83.2H706.894V88.2H711.894V83.2ZM759.894 102L754.898 101.787L754.894 101.894V102H759.894ZM706.894 120.8V266.4H716.894V120.8H706.894ZM706.894 266.4C706.894 273.956 708.482 280.55 712.362 285.489L720.225 279.311C718.239 276.783 716.894 272.711 716.894 266.4H706.894ZM712.362 285.489C714.668 288.424 718.007 290.272 721.766 291.392C725.524 292.511 730.014 293 735.094 293V283C730.573 283 727.13 282.555 724.621 281.808C722.114 281.061 720.853 280.11 720.225 279.311L712.362 285.489ZM735.094 293H745.494V283H735.094V293ZM745.494 293C749.702 293 751.865 294.202 753.098 295.734C754.476 297.448 755.541 300.614 755.298 306.183L765.289 306.617C765.58 299.919 764.445 293.886 760.89 289.466C757.189 284.865 751.685 283 745.494 283V293ZM755.294 306.4C755.294 312.146 754.14 315.534 752.665 317.407C751.37 319.053 749.295 320.2 745.494 320.2V330.2C751.559 330.2 756.885 328.214 760.522 323.593C763.981 319.2 765.294 313.187 765.294 306.4H755.294ZM745.494 320.2H732.294V330.2H745.494V320.2ZM732.294 320.2C724.18 320.2 716.646 319.186 709.667 317.192L706.92 326.808C714.875 329.08 723.341 330.2 732.294 330.2V320.2ZM709.824 317.24C702.754 314.967 695.919 311.806 689.314 307.742L684.073 316.258C691.336 320.727 698.9 324.233 706.764 326.76L709.824 317.24ZM681.694 312V312.4H691.694V312H681.694ZM689.428 308.214C678.299 300.946 672.094 287.718 672.094 266.8H662.094C662.094 289.616 668.955 306.788 683.96 316.586L689.428 308.214ZM672.094 266.8V120.8H662.094V266.8H672.094ZM667.094 115.8H651.494V125.8H667.094V115.8ZM651.494 115.8C647.883 115.8 645.781 114.687 644.382 112.956C642.804 111.005 641.534 107.541 641.289 101.787L631.298 102.213C631.587 108.992 633.117 114.929 636.606 119.244C640.273 123.78 645.505 125.8 651.494 125.8V115.8ZM641.294 102C641.294 96.2769 642.472 92.9115 643.982 91.0436C645.328 89.3789 647.512 88.2 651.494 88.2V78.2C645.342 78.2 639.926 80.1544 636.206 84.7564C632.649 89.1552 631.294 95.1898 631.294 102H641.294ZM651.494 88.2H667.094V78.2H651.494V88.2ZM672.094 83.2V40.4H662.094V83.2H672.094ZM672.094 40.4C672.094 35.0176 673.651 31.8148 676.014 29.8245C678.542 27.6956 682.875 26.2 689.894 26.2V16.2C681.713 16.2 674.645 17.9043 669.573 22.1754C664.337 26.5851 662.094 32.9824 662.094 40.4H672.094ZM689.894 26.2C696.611 26.2 700.715 27.6802 703.106 29.7671C705.367 31.7405 706.894 34.9612 706.894 40.4H716.894C716.894 33.0388 714.754 26.6595 709.681 22.2329C704.739 17.9198 697.843 16.2 689.894 16.2V26.2ZM706.894 40.4V83.2H716.894V40.4H706.894ZM711.894 88.2H745.094V78.2H711.894V88.2ZM745.094 88.2C749.266 88.2 751.42 89.4114 752.665 90.9928C754.071 92.7791 755.142 96.0659 754.898 101.787L764.889 102.213C765.179 95.4007 764.05 89.2875 760.522 84.8072C756.834 80.1219 751.322 78.2 745.094 78.2V88.2ZM754.894 102C754.894 107.746 753.74 111.134 752.265 113.007C750.97 114.653 748.895 115.8 745.094 115.8V125.8C751.159 125.8 756.485 123.814 760.122 119.193C763.581 114.8 764.894 108.787 764.894 102H754.894ZM745.094 115.8H711.894V125.8H745.094V115.8ZM839.041 83.2H834.041V88.2H839.041V83.2ZM965.841 98.4L968.718 94.311L968.701 94.2986L968.683 94.2863L965.841 98.4ZM937.041 130L940.576 126.464L932.88 132.773L937.041 130ZM937.441 130.4L933.905 133.936L941.837 128.019L937.441 130.4ZM839.041 120.8V115.8H834.041V120.8H839.041ZM834.041 307.2C834.041 312.639 832.514 315.859 830.253 317.833C827.862 319.92 823.758 321.4 817.041 321.4V331.4C824.99 331.4 831.886 329.68 836.828 325.367C841.9 320.941 844.041 314.561 844.041 307.2H834.041ZM817.041 321.4C810.324 321.4 806.22 319.92 803.828 317.833C801.567 315.859 800.041 312.639 800.041 307.2H790.041C790.041 314.561 792.181 320.941 797.253 325.367C802.195 329.68 809.091 331.4 817.041 331.4V321.4ZM800.041 307.2V23.2H790.041V307.2H800.041ZM800.041 23.2C800.041 17.7612 801.567 14.5405 803.828 12.5671C806.22 10.4802 810.324 9 817.041 9V-1C809.091 -1 802.195 0.719765 797.253 5.03287C792.181 9.45948 790.041 15.8388 790.041 23.2H800.041ZM817.041 9C823.758 9 827.862 10.4802 830.253 12.5671C832.514 14.5405 834.041 17.7612 834.041 23.2H844.041C844.041 15.8388 841.9 9.45948 836.828 5.03287C831.886 0.719765 824.99 -1 817.041 -1V9ZM834.041 23.2V83.2H844.041V23.2H834.041ZM839.041 88.2H923.441V78.2H839.041V88.2ZM923.441 88.2C935.752 88.2 948.91 92.78 962.998 102.514L968.683 94.2863C953.438 83.7533 938.329 78.2 923.441 78.2V88.2ZM962.963 102.489C975.708 111.457 982.441 125.718 982.441 146.4H992.441C992.441 123.349 984.774 105.609 968.718 94.311L962.963 102.489ZM982.441 146.4V307.2H992.441V146.4H982.441ZM982.441 307.2C982.441 312.639 980.914 315.859 978.653 317.833C976.262 319.92 972.158 321.4 965.441 321.4V331.4C973.39 331.4 980.286 329.68 985.228 325.367C990.3 320.941 992.441 314.561 992.441 307.2H982.441ZM965.441 321.4C958.724 321.4 954.62 319.92 952.228 317.833C949.967 315.859 948.441 312.639 948.441 307.2H938.441C938.441 314.561 940.581 320.941 945.653 325.367C950.595 329.68 957.491 331.4 965.441 331.4V321.4ZM948.441 307.2V150H938.441V307.2H948.441ZM948.441 150C948.441 141.973 945.953 134.354 941.201 127.226L932.88 132.773C936.662 138.446 938.441 144.16 938.441 150H948.441ZM933.505 133.536L933.905 133.936L940.976 126.864L940.576 126.464L933.505 133.536ZM941.837 128.019C937.122 119.314 927.794 115.8 916.241 115.8V125.8C926.021 125.8 930.826 128.686 933.044 132.781L941.837 128.019ZM916.241 115.8H839.041V125.8H916.241V115.8ZM834.041 120.8V307.2H844.041V120.8H834.041ZM1041.55 52.8L1038.02 56.3355L1038.06 56.3748L1038.1 56.4132L1041.55 52.8ZM1041.55 9.19998L1038.1 5.58676L1038.06 5.62516L1038.02 5.66444L1041.55 9.19998ZM1085.15 9.19998L1088.69 5.66444L1088.69 5.66444L1085.15 9.19998ZM1080.55 307.2C1080.55 312.639 1079.03 315.859 1076.77 317.833C1074.37 319.92 1070.27 321.4 1063.55 321.4V331.4C1071.5 331.4 1078.4 329.68 1083.34 325.367C1088.41 320.941 1090.55 314.561 1090.55 307.2H1080.55ZM1063.55 321.4C1056.68 321.4 1052.47 319.912 1050.01 317.804C1047.7 315.822 1046.15 312.611 1046.15 307.2H1036.15C1036.15 314.589 1038.34 320.978 1043.5 325.396C1048.51 329.688 1055.49 331.4 1063.55 331.4V321.4ZM1046.15 307.2V100.8H1036.15V307.2H1046.15ZM1046.15 100.8C1046.15 95.3893 1047.7 92.1779 1050.01 90.1963C1052.47 88.0882 1056.68 86.6 1063.55 86.6V76.6C1055.49 76.6 1048.51 78.3118 1043.5 82.6037C1038.34 87.0221 1036.15 93.4107 1036.15 100.8H1046.15ZM1063.55 86.6C1070.27 86.6 1074.37 88.0802 1076.77 90.1671C1079.03 92.1405 1080.55 95.3612 1080.55 100.8H1090.55C1090.55 93.4388 1088.41 87.0595 1083.34 82.6329C1078.4 78.3198 1071.5 76.6 1063.55 76.6V86.6ZM1080.55 100.8V307.2H1090.55V100.8H1080.55ZM1088.95 31.2C1088.95 38.4495 1086.52 44.365 1081.62 49.2645L1088.69 56.3355C1095.52 49.5017 1098.95 41.0171 1098.95 31.2H1088.95ZM1081.62 49.2645C1076.72 54.1639 1070.8 56.6 1063.55 56.6V66.6C1073.37 66.6 1081.85 63.1694 1088.69 56.3355L1081.62 49.2645ZM1063.55 56.6C1056.3 56.6 1050.21 54.158 1045.01 49.1868L1038.1 56.4132C1045.17 63.1753 1053.74 66.6 1063.55 66.6V56.6ZM1045.09 49.2645C1040.19 44.365 1037.75 38.4495 1037.75 31.2H1027.75C1027.75 41.0171 1031.18 49.5017 1038.02 56.3355L1045.09 49.2645ZM1037.75 31.2C1037.75 23.6368 1040.22 17.6032 1045.09 12.7355L1038.02 5.66444C1031.15 12.5301 1027.75 21.1632 1027.75 31.2H1037.75ZM1045.01 12.8132C1050.21 7.84194 1056.3 5.39999 1063.55 5.39999V-4.60001C1053.74 -4.60001 1045.17 -1.1753 1038.1 5.58676L1045.01 12.8132ZM1063.55 5.39999C1070.8 5.39999 1076.72 7.83604 1081.62 12.7355L1088.69 5.66444C1081.85 -1.1694 1073.37 -4.60001 1063.55 -4.60001V5.39999ZM1081.62 12.7355C1086.49 17.6032 1088.95 23.6368 1088.95 31.2H1098.95C1098.95 21.1632 1095.55 12.5301 1088.69 5.66444L1081.62 12.7355ZM1185.13 257.2L1181.38 253.899L1180.13 255.315V257.2H1185.13ZM1185.13 192.8H1180.13V206.61L1188.98 196.001L1185.13 192.8ZM1207.13 167.2L1203.39 163.885L1203.39 163.892L1207.13 167.2ZM1231.53 139.2L1227.75 135.937L1227.74 135.946L1231.53 139.2ZM1255.93 111.2L1259.68 114.508L1259.71 114.481L1259.73 114.454L1255.93 111.2ZM1278.33 85.2H1283.33V71.7964L1274.56 81.9253L1278.33 85.2ZM1278.33 85.6H1273.33V99.1163L1282.13 88.8539L1278.33 85.6ZM1300.33 79.2L1297.91 83.5708L1298.18 83.7247L1298.48 83.8424L1300.33 79.2ZM1308.73 84V89H1324.11L1311.68 79.9563L1308.73 84ZM1308.33 84V79H1294.52L1305.13 87.8411L1308.33 84ZM1316.73 106.4L1321.42 108.156L1321.45 108.069L1321.48 107.981L1316.73 106.4ZM1312.73 112L1309.48 108.204L1309.21 108.434L1308.98 108.699L1312.73 112ZM1318.73 297.2L1314.31 299.537L1314.32 299.554L1314.33 299.57L1318.73 297.2ZM1309.53 323.6L1307.55 319.012L1307.24 319.143L1306.96 319.313L1309.53 323.6ZM1286.73 325.2L1289.86 321.296L1289.73 321.196L1289.6 321.104L1286.73 325.2ZM1280.33 318L1275.89 320.3L1275.92 320.348L1275.94 320.394L1280.33 318ZM1240.33 240.8L1244.77 238.5L1244.7 238.361L1244.62 238.228L1240.33 240.8ZM1247.13 212L1249.87 216.185L1249.96 216.129L1250.04 216.069L1247.13 212ZM1252.73 208.4L1250.5 203.928L1250.37 203.99L1250.25 204.059L1252.73 208.4ZM1259.53 206L1258.64 201.081L1258.54 201.098L1258.45 201.119L1259.53 206ZM1267.93 207.6L1265.36 211.887L1265.36 211.887L1267.93 207.6ZM1274.73 214L1279.15 211.663L1279.01 211.388L1278.83 211.133L1274.73 214ZM1180.13 257.2V308H1190.13V257.2H1180.13ZM1180.13 308C1180.13 313.273 1178.63 316.382 1176.39 318.299C1173.99 320.344 1169.87 321.8 1163.13 321.8V331.8C1171.06 331.8 1177.94 330.123 1182.88 325.901C1187.97 321.551 1190.13 315.261 1190.13 308H1180.13ZM1163.13 321.8C1156.4 321.8 1152.28 320.344 1149.88 318.299C1147.64 316.382 1146.13 313.273 1146.13 308H1136.13C1136.13 315.261 1138.3 321.551 1143.39 325.901C1148.33 330.123 1155.21 331.8 1163.13 331.8V321.8ZM1146.13 308V23.2H1136.13V308H1146.13ZM1146.13 23.2C1146.13 17.7612 1147.66 14.5405 1149.92 12.5671C1152.31 10.4802 1156.42 9 1163.13 9V-1C1155.18 -1 1148.29 0.719765 1143.35 5.03287C1138.27 9.45948 1136.13 15.8388 1136.13 23.2H1146.13ZM1163.13 9C1169.85 9 1173.96 10.4802 1176.35 12.5671C1178.61 14.5405 1180.13 17.7612 1180.13 23.2H1190.13C1190.13 15.8388 1187.99 9.45948 1182.92 5.03287C1177.98 0.719765 1171.08 -1 1163.13 -1V9ZM1180.13 23.2V192.8H1190.13V23.2H1180.13ZM1188.98 196.001C1195.61 188.042 1202.91 179.545 1210.88 170.508L1203.39 163.892C1195.36 172.988 1187.99 181.558 1181.29 189.599L1188.98 196.001ZM1210.88 170.515C1219.16 161.162 1227.31 151.808 1235.33 142.454L1227.74 135.946C1219.76 145.259 1211.64 154.571 1203.39 163.885L1210.88 170.515ZM1235.32 142.463C1243.58 132.877 1251.7 123.559 1259.68 114.508L1252.19 107.892C1244.17 116.974 1236.02 126.323 1227.75 135.937L1235.32 142.463ZM1259.73 114.454C1267.73 105.126 1275.19 96.4668 1282.11 88.4747L1274.56 81.9253C1267.62 89.9332 1260.14 98.6069 1252.14 107.946L1259.73 114.454ZM1273.33 85.2V85.6H1283.33V85.2H1273.33ZM1282.13 88.8539C1286.49 83.7657 1290.03 82.2 1292.73 82.2V72.2C1285.84 72.2 1279.78 76.2343 1274.54 82.346L1282.13 88.8539ZM1292.73 82.2C1294.53 82.2 1296.23 82.6374 1297.91 83.5708L1302.76 74.8292C1299.64 73.0959 1296.28 72.2 1292.73 72.2V82.2ZM1298.48 83.8424C1300.67 84.7211 1303.11 86.0934 1305.79 88.0437L1311.68 79.9563C1308.49 77.6399 1305.33 75.8122 1302.19 74.5576L1298.48 83.8424ZM1308.73 79H1308.33V89H1308.73V79ZM1305.13 87.8411C1311.03 92.7589 1312.93 96.8207 1312.93 100H1322.93C1322.93 92.5126 1318.43 85.9078 1311.54 80.1589L1305.13 87.8411ZM1312.93 100C1312.93 101.176 1312.68 102.76 1311.99 104.819L1321.48 107.981C1322.39 105.24 1322.93 102.557 1322.93 100H1312.93ZM1312.05 104.644C1311.57 105.926 1310.76 107.108 1309.48 108.204L1315.99 115.796C1318.44 113.692 1320.3 111.141 1321.42 108.156L1312.05 104.644ZM1308.98 108.699L1181.38 253.899L1188.89 260.501L1316.49 115.301L1308.98 108.699ZM1314.33 299.57C1315.83 302.35 1316.53 305.14 1316.53 308H1326.53C1326.53 303.394 1325.37 298.984 1323.14 294.83L1314.33 299.57ZM1316.53 308C1316.53 310.431 1315.86 312.377 1314.57 314.051C1313.23 315.794 1311.02 317.509 1307.55 319.012L1311.52 328.188C1316.05 326.224 1319.84 323.606 1322.5 320.149C1325.21 316.623 1326.53 312.502 1326.53 308H1316.53ZM1306.96 319.313C1302.07 322.247 1298.17 323.4 1295.13 323.4V333.4C1300.63 333.4 1306.33 331.353 1312.11 327.887L1306.96 319.313ZM1295.13 323.4C1293.52 323.4 1291.79 322.842 1289.86 321.296L1283.61 329.104C1287.01 331.825 1290.88 333.4 1295.13 333.4V323.4ZM1289.6 321.104C1287.58 319.691 1285.96 317.881 1284.72 315.606L1275.94 320.394C1277.9 323.986 1280.55 326.975 1283.87 329.296L1289.6 321.104ZM1284.77 315.7L1244.77 238.5L1235.89 243.1L1275.89 320.3L1284.77 315.7ZM1244.62 238.228C1242.61 234.874 1241.73 231.752 1241.73 228.8H1231.73C1231.73 233.848 1233.26 238.726 1236.05 243.372L1244.62 238.228ZM1241.73 228.8C1241.73 224.24 1243.96 220.05 1249.87 216.185L1244.4 207.815C1236.44 213.017 1231.73 220.027 1231.73 228.8H1241.73ZM1250.04 216.069C1251.78 214.827 1253.5 213.719 1255.22 212.741L1250.25 204.059C1248.23 205.214 1246.22 206.506 1244.23 207.931L1250.04 216.069ZM1254.97 212.872C1256.73 211.994 1258.61 211.328 1260.62 210.881L1258.45 201.119C1255.66 201.738 1253.01 202.673 1250.5 203.928L1254.97 212.872ZM1260.43 210.919C1262.11 210.613 1263.69 210.882 1265.36 211.887L1270.51 203.313C1266.85 201.118 1262.82 200.32 1258.64 201.081L1260.43 210.919ZM1265.36 211.887C1267.4 213.109 1269.15 214.748 1270.64 216.867L1278.83 211.133C1276.58 207.918 1273.8 205.291 1270.51 203.313L1265.36 211.887ZM1270.31 216.337L1314.31 299.537L1323.15 294.863L1279.15 211.663L1270.31 216.337Z" fill="#2F2A33" fill-opacity="0.75" mask="url(#path-1-inside-1_602_2)"/>
    </g>
    <defs>
    <filter id="filter0_b_602_2" x="-3.41553" y="-3.59998" width="1328.95" height="336" filterUnits="userSpaceOnUse" color-interpolation-filters="sRGB">
    <feFlood flood-opacity="0" result="BackgroundImageFix"/>
    <feGaussianBlur in="BackgroundImageFix" stdDeviation="2"/>
    <feComposite in2="SourceAlpha" operator="in" result="effect1_backgroundBlur_602_2"/>
    <feBlend mode="normal" in="SourceGraphic" in2="effect1_backgroundBlur_602_2" result="shape"/>
    </filter>
    </defs>
    </svg>
    